<svg width="24" height="24" viewBox="0 0 24 24" fill="none" xmlns="http://www.w3.org/2000/svg">
<g clip-path="url(#clip0_73_8777)">
<path d="M23.98 2.02298V6.02298C23.98 6.2882 23.8747 6.54255 23.6871 6.73009C23.4996 6.91762 23.2452 7.02298 22.98 7.02298C22.7148 7.02298 22.4605 6.91762 22.2729 6.73009C22.0854 6.54255 21.98 6.2882 21.98 6.02298V3.45998L16.68 8.73198C16.4909 8.91368 16.238 9.01382 15.9758 9.01083C15.7136 9.00784 15.463 8.90196 15.2781 8.716C15.0932 8.53004 14.9887 8.27888 14.9872 8.01664C14.9857 7.75439 15.0873 7.50205 15.27 7.31398L20.59 2.02298H17.98C17.7148 2.02298 17.4605 1.91763 17.2729 1.73009C17.0854 1.54255 16.98 1.2882 16.98 1.02298C16.98 0.757766 17.0854 0.503412 17.2729 0.315875C17.4605 0.128339 17.7148 0.0229821 17.98 0.0229821H21.98C22.5105 0.0229821 23.0192 0.233696 23.3942 0.608769C23.7693 0.983841 23.98 1.49255 23.98 2.02298ZM23.075 16.762C23.6545 17.3431 23.98 18.1303 23.98 18.951C23.98 19.7717 23.6545 20.5589 23.075 21.14L22.163 22.19C13.972 30.028 -5.95697 10.105 1.76303 1.88998L2.91203 0.889982C3.49412 0.326753 4.27437 0.015043 5.08431 0.0221527C5.89426 0.0292624 6.66891 0.354621 7.24103 0.927982C7.27103 0.958982 9.12403 3.36698 9.12403 3.36698C9.6737 3.94443 9.97977 4.71145 9.97865 5.50868C9.97753 6.30592 9.66932 7.07208 9.11803 7.64798L7.95903 9.10498C8.59988 10.6621 9.54209 12.0772 10.7315 13.2691C11.921 14.4609 13.3342 15.406 14.89 16.05L16.355 14.885C16.9309 14.334 17.6968 14.026 18.4938 14.0248C19.2908 14.0237 20.0576 14.3296 20.635 14.879C20.635 14.879 23.044 16.732 23.075 16.762ZM21.7 18.216C21.7 18.216 19.307 16.374 19.276 16.344C19.07 16.1397 18.7916 16.0251 18.5015 16.0251C18.2114 16.0251 17.933 16.1397 17.727 16.344C17.7 16.37 15.683 17.978 15.683 17.978C15.5471 18.0862 15.3853 18.1571 15.2137 18.1837C15.042 18.2104 14.8664 18.1919 14.704 18.13C12.6872 17.38 10.8554 16.2049 9.33288 14.6844C7.81035 13.164 6.63275 11.3337 5.88003 9.31798C5.81418 9.1541 5.79291 8.9757 5.81837 8.80093C5.84384 8.62616 5.91515 8.46125 6.02503 8.32298C6.02503 8.32298 7.63203 6.30598 7.65903 6.27898C7.8633 6.07297 7.97791 5.7946 7.97791 5.50448C7.97791 5.21437 7.8633 4.936 7.65903 4.72998C7.62903 4.69998 5.78703 2.30598 5.78703 2.30598C5.57805 2.11836 5.30523 2.01777 5.02448 2.02484C4.74372 2.0319 4.4763 2.14608 4.27703 2.34398L3.12803 3.34398C-2.51597 10.126 14.757 26.442 20.7 20.826L21.612 19.776C21.827 19.5787 21.9566 19.3052 21.973 19.0139C21.9894 18.7225 21.8915 18.4362 21.7 18.216Z" fill="#022E22"/>
</g>
<defs>
<clipPath id="clip0_73_8777">
<rect width="24" height="24" fill="white"/>
</clipPath>
</defs>
</svg>
