<svg width="24" height="24" viewBox="0 0 24 24" fill="none" xmlns="http://www.w3.org/2000/svg">
<path d="M19.9998 9.07984C19.9998 9.05284 19.9998 9.02684 19.9998 8.99984C19.9998 6.87811 19.157 4.84328 17.6567 3.34299C16.1564 1.84269 14.1216 0.99984 11.9998 0.99984C9.87811 0.99984 7.84328 1.84269 6.34299 3.34299C4.8427 4.84328 3.99984 6.87811 3.99984 8.99984C3.99984 9.02684 3.99984 9.05284 3.99984 9.07984C3.09123 9.60513 2.29497 10.3042 1.65654 11.1373C1.01811 11.9703 0.549999 12.9209 0.278945 13.9348C0.00789076 14.9487 -0.0608024 16.0061 0.0767877 17.0466C0.214378 18.087 0.555556 19.0902 1.08084 19.9988C1.60613 20.9075 2.30524 21.7037 3.13826 22.3421C3.97127 22.9806 4.92188 23.4487 5.9358 23.7197C6.94972 23.9908 8.0071 24.0595 9.04757 23.9219C10.088 23.7843 11.0912 23.4431 11.9998 22.9178C12.9085 23.4431 13.9116 23.7843 14.9521 23.9219C15.9926 24.0595 17.05 23.9908 18.0639 23.7197C19.0778 23.4487 20.0284 22.9806 20.8614 22.3421C21.6944 21.7037 22.3936 20.9075 22.9188 19.9988C23.4441 19.0902 23.7853 18.087 23.9229 17.0466C24.0605 16.0061 23.9918 14.9487 23.7207 13.9348C23.4497 12.9209 22.9816 11.9703 22.3431 11.1373C21.7047 10.3042 20.9085 9.60513 19.9998 9.07984ZM11.9998 20.4598C10.925 19.4981 10.2332 18.1807 10.0518 16.7498C11.3304 17.0839 12.6733 17.0839 13.9518 16.7498C13.7694 18.1813 13.0762 19.4987 11.9998 20.4598ZM11.9998 14.9998C11.3695 14.9985 10.7434 14.8973 10.1448 14.6998C10.4185 13.4788 11.0671 12.374 11.9998 11.5398C12.9326 12.374 13.5811 13.4788 13.8548 14.6998C13.2563 14.8973 12.6301 14.9985 11.9998 14.9998ZM8.33084 13.7368C7.22369 12.8811 6.45044 11.6654 6.14484 10.2998C7.48939 9.85836 8.94726 9.91047 10.2568 10.4468C9.35933 11.3724 8.6986 12.5011 8.33084 13.7368ZM13.7428 10.4438C15.0524 9.90747 16.5103 9.85536 17.8548 10.2968C17.5499 11.6635 16.7766 12.8804 15.6688 13.7368C15.3015 12.5 14.6408 11.3703 13.7428 10.4438ZM11.9998 2.99984C13.4601 3.00211 14.8695 3.5364 15.9643 4.50272C17.0591 5.46904 17.7642 6.80117 17.9478 8.24984C15.9332 7.72933 13.7944 8.02851 11.9998 9.08184C10.2053 8.02851 8.0665 7.72933 6.05184 8.24984C6.23544 6.80117 6.94061 5.46904 8.0354 4.50272C9.1302 3.5364 10.5396 3.00211 11.9998 2.99984ZM1.99984 15.9998C2.00047 15.0846 2.21091 14.1817 2.61501 13.3605C3.0191 12.5393 3.60608 11.8217 4.33084 11.2628C4.91494 13.2264 6.22751 14.8924 7.99984 15.9198C7.99984 15.9468 7.99984 15.9728 7.99984 15.9998C7.99995 18.0751 8.80969 20.0684 10.2568 21.5558C9.34626 21.9274 8.35823 22.0691 7.37992 21.9685C6.40162 21.8679 5.46309 21.5281 4.64715 20.9791C3.83121 20.4301 3.16292 19.6887 2.70124 18.8203C2.23956 17.9519 1.99868 16.9833 1.99984 15.9998ZM15.9998 21.9998C15.2259 21.9994 14.4593 21.8486 13.7428 21.5558C15.19 20.0684 15.9997 18.0751 15.9998 15.9998C15.9998 15.9728 15.9998 15.9468 15.9998 15.9198C17.7737 14.8932 19.0878 13.2271 19.6728 11.2628C20.6636 12.0277 21.3901 13.0835 21.7503 14.2822C22.1105 15.4809 22.0863 16.7623 21.6812 17.9466C21.2761 19.1309 20.5103 20.1586 19.4914 20.8855C18.4725 21.6125 17.2515 22.0021 15.9998 21.9998Z" fill="#022E22"/>
</svg>
