<svg width="101" height="109" viewBox="0 0 101 109" fill="none" xmlns="http://www.w3.org/2000/svg">
<g clip-path="url(#clip0_37_51439)">
<path d="M75.6761 76.446C75.7067 76.5797 75.6456 76.6619 75.5131 76.6722C75.0853 76.6619 74.7084 76.7236 74.6778 77.2684C73.7814 80.0232 71.8052 82.0687 70.0837 84.2787C68.4538 86.3757 66.8444 88.4726 65.2247 90.5798V90.5593C64.7663 91.7722 63.931 92.6973 62.9531 93.5094C62.1585 94.157 61.476 94.8765 61.0584 95.8428C60.875 96.2642 60.5898 96.6857 60.2536 96.994C57.1162 99.9133 54.5288 103.295 52.084 106.8C50.23 109.452 48.101 109.884 45.4627 107.078C42.3558 103.778 39.2794 100.304 37.2116 96.1614C35.9892 93.715 34.0232 91.8236 32.2813 89.85C29.2151 86.386 27.025 82.3977 24.733 78.4607C21.2085 72.396 17.8163 66.2491 14.414 60.1125C11.4701 54.8084 8.87249 49.3194 6.23417 43.8509C4.63488 40.5204 2.97446 37.2105 1.86412 33.6745C0.315764 28.6686 -0.641775 23.601 0.499123 18.3278C0.896399 16.4981 0.865839 14.5759 1.81319 12.8798C3.15782 10.7109 5.11365 9.10738 6.93704 7.4216C8.13906 6.30117 9.80966 5.39661 11.7044 6.08531C12.3869 6.33201 12.9268 6.17782 13.3953 5.64331C13.5991 5.40689 13.925 5.04712 14.1695 5.18075C16.2985 6.38341 17.1033 5.2527 17.6228 3.35106C17.7756 2.78571 18.4071 2.53901 18.998 2.74459C21.4224 3.60804 23.806 3.90613 26.373 3.17631C27.4936 2.85766 29.266 3.35106 29.8161 4.3173C30.9163 6.24978 32.6785 6.14699 34.3186 6.67122C36.9365 7.49355 38.8109 9.65217 41.3371 10.7726C43.2013 11.5949 44.77 13.1882 46.7157 13.9386C48.3659 14.5759 49.9041 15.244 50.8107 16.8579C51.2181 17.5671 51.9617 17.9988 52.5831 17.7316C55.1705 16.6214 56.0364 18.3894 56.9124 20.3836C56.9735 19.8696 56.78 19.5921 56.8207 19.2734C56.9022 18.41 57.5236 17.968 58.1348 17.5157C58.7053 17.1046 59.2044 16.6317 59.6934 16.128C59.9684 15.8505 60.2434 15.5832 60.5389 15.3263C60.6815 15.2029 60.8445 15.0898 61.0074 14.9973C61.2417 14.8534 61.4862 14.6992 61.7205 14.5348C61.9344 14.3497 62.1585 14.1544 62.3724 13.9694C62.9327 13.5274 63.5439 13.1985 64.2162 12.9723C64.4199 12.9004 64.6135 12.8593 64.8274 12.8181C66.9971 13.0648 65.459 14.6478 65.8053 15.5627C64.1958 16.6728 65.1534 19.037 63.5439 20.2294C63.1976 20.4864 64.043 21.062 64.532 21.2779C64.97 21.4732 65.6321 21.5863 65.6933 20.9798C65.9683 18.5231 67.9751 17.5466 69.5234 16.1589C69.7781 15.943 70.0531 15.7683 70.3587 15.6244C70.7356 15.3982 71.5404 15.2954 71.357 14.8637C70.7356 13.4143 72.0395 13.2396 72.6201 12.5817C72.7729 12.3042 72.9359 12.0369 73.1397 11.7902C74.1685 10.6595 74.8714 10.7829 75.4622 12.2631C75.7678 13.0237 76.379 14.2983 77.0106 12.3659C77.1226 12.1808 77.255 12.0267 77.418 11.8827C77.8764 11.6258 78.783 11.6463 78.0292 10.7006C77.469 10.0017 77.7542 9.42603 78.4672 9.00459C78.671 8.94291 78.8747 8.94291 79.0784 8.98403C79.3433 8.95319 79.6183 9.48771 79.873 8.95319C79.8526 8.76817 79.8526 8.59342 79.8526 8.41867C79.8526 8.21309 79.8832 8.01779 79.9239 7.82249C79.985 7.6169 80.0665 7.43188 80.1888 7.24685C80.5759 6.80485 81.1158 6.66094 81.6455 6.56843C82.7864 6.36285 83.7235 6.4862 82.8882 7.95611C82.0122 9.50826 82.6336 10.0531 84.1004 10.3512C86.0563 10.752 87.7676 11.6155 89.1733 13.106C90.1105 14.0928 91.3838 14.5862 92.5655 13.8975C93.4313 13.4041 94.7556 14.5656 95.1936 13.0135C95.3362 12.8181 95.5094 12.6845 95.7335 12.6023C96.7318 12.4481 97.1902 13.0237 97.343 13.8975C97.506 14.9048 97.9134 15.8608 97.9236 16.899C97.2819 18.2147 95.9576 16.6934 95.1223 17.7727C95.3464 18.1633 95.7029 18.3894 96.304 18.1839C96.4669 18.0708 96.6401 17.9577 96.8031 17.8549C97.2921 17.6596 97.6791 17.3307 98.0561 16.9812C98.9525 16.8887 99.5229 17.5054 99.5025 18.1941C99.4516 20.1472 100.664 21.8946 99.2275 24.1663C98.1376 25.8932 97.6995 28.5247 97.6384 30.858C97.6078 31.9785 97.4652 33.0372 96.5994 33.5717C94.4602 34.8977 94.2768 37.0975 93.8388 39.1944C93.6656 40.0476 93.3702 40.8596 93.1257 41.682C92.5349 44.6218 91.4959 47.3972 89.9475 49.9464C89.2447 51.1079 89.3873 52.5059 88.7863 53.7086C88.2973 54.6851 88.0834 55.7952 87.3907 56.6895C86.9934 56.9465 86.5452 57.1829 86.8101 57.7997C86.9017 58.694 86.2294 59.2387 85.8322 59.8863C83.9782 62.929 82.0529 65.9305 80.199 68.9731C79.3433 70.371 78.5793 71.8307 77.7746 73.2492C77.5097 73.7221 77.306 74.2668 76.6744 74.3799C75.7169 74.7602 75.8799 75.6751 75.6863 76.4255L75.6761 76.446Z" fill="#FE006F"/>
<path d="M93.1154 41.692C93.6247 39.4717 93.1357 37.0252 94.4498 34.99C94.949 34.2087 95.8861 33.8181 96.4769 33.0678C96.9251 32.4921 97.465 31.9679 97.2307 31.197C96.7927 29.7579 97.3632 28.5244 97.9031 27.2806C98.1068 26.8283 98.3003 26.3966 98.2087 25.9238C97.9846 24.68 98.2087 23.6726 99.3496 22.9531C99.8691 22.6242 100.052 22.1205 99.482 21.586C98.9319 21.072 98.6569 20.63 99.1356 19.7666C99.594 18.9442 98.7689 17.7107 97.7503 17.2173C97.2409 16.1894 96.6909 15.1923 96.7825 13.9691C96.8538 12.9823 96.1 12.9309 95.387 12.9207V15.1923C94.786 14.1953 94.2868 13.9074 93.4312 14.2981C91.4855 15.1923 89.9066 14.8737 88.3786 13.1057C87.2377 11.7899 85.4449 11.1629 83.6826 10.7723C81.3499 10.2686 81.1156 9.63133 82.4398 7.66801C82.5723 7.47271 82.6945 7.28768 83.0612 6.74289C81.9407 7.20545 80.9933 6.95875 80.2905 7.69885C79.4755 8.33616 78.192 7.67829 77.5503 8.70621C77.5808 8.68565 77.5197 8.7576 77.5197 8.7576C77.5197 8.7576 77.6114 8.71648 77.6318 8.69593C78.2124 8.39783 78.7727 8.08946 78.8745 9.11737C78.3448 9.52854 77.3975 9.90886 78.6606 10.5359C79.3024 10.8545 79.4552 11.2657 79.1292 11.8311C78.6912 12.5917 78.1003 12.3142 77.5401 11.975C77.1021 12.0675 77.2956 12.2525 77.4688 12.4478C76.8779 13.0851 77.3975 13.9074 77.1835 14.8017C76.1343 14.2055 75.0444 13.5271 74.9629 12.5814C74.7999 10.577 73.8322 12.0058 73.221 11.9852C72.9561 12.2936 72.9052 12.602 73.221 12.9104C72.9867 13.4243 72.7014 13.8663 72.0291 13.7533C71.693 13.7019 71.3976 13.7327 71.6624 14.185C71.8458 14.4831 72.8237 14.2672 72.2736 15.0176C71.8458 15.6035 71.3874 16.3744 70.4196 15.8194C70.3585 15.7371 70.3076 15.6446 70.2465 15.5624C70.165 15.254 70.165 14.9354 70.1344 14.627C70.1344 14.3083 70.165 14.6887 70.0937 14.4008C69.8288 13.3935 70.9595 12.1908 69.8186 11.3685C68.5249 10.4331 67.8119 12.0572 66.7525 12.2525C66.5487 12.2525 66.3552 12.2114 66.1718 12.1189C66.0394 11.9544 65.9681 11.7797 65.9579 11.5741C65.9274 11.2657 65.7542 11.0601 65.4792 10.9573C65.3365 10.9265 65.2143 10.8443 65.1226 10.7209C64.9902 10.8648 65.0717 10.8957 65.2347 10.9985C65.4893 11.1835 65.5097 11.5021 65.4792 11.8105C65.4282 12.0161 65.3264 12.2114 65.2041 12.3759C65.1328 12.4478 65.0513 12.53 64.98 12.602C64.8068 12.7356 64.6133 12.8281 64.4096 12.8898C63.9919 12.9823 63.6354 13.2393 63.2177 13.3318C62.6065 13.7738 61.9444 12.7151 61.3434 13.4141C61.3128 13.5888 61.2619 13.743 61.1906 13.8972C61.0887 14.1233 60.9971 14.3495 61.0378 14.6064C61.0989 14.8531 61.1906 15.0998 60.9563 15.3054L60.9869 15.2746C60.5794 15.6035 60.0497 15.7371 59.6321 16.0558C58.9597 16.4875 57.5846 16.138 57.8901 17.6593C57.6762 18.1527 56.6474 18.2555 57.1975 19.119C57.0854 20.0647 58.1143 20.3114 58.3995 20.9795C58.0633 21.6785 57.5744 21.4523 57.2178 21.1748C56.5353 20.6506 56.0158 20.0133 55.6898 19.1395C55.2314 17.9266 55.1398 18.0397 53.4997 18.3892C52.7052 18.5639 51.8597 17.8855 51.004 18.3069C50.8308 17.5565 50.1483 17.2071 49.7409 16.6417C49.0991 15.7371 47.8869 14.8429 46.909 14.7401C46.6034 14.7092 46.3182 14.6989 46.033 14.5242C44.9328 13.8252 44.5966 13.743 43.5576 13.8047C43.3437 13.2496 44.4235 12.7665 43.7002 12.2114C43.1196 11.7694 42.6816 12.1908 42.2436 12.5198C41.9278 12.7562 41.5916 12.972 41.123 12.7767C40.7767 12.1703 42.0194 11.5124 41.3675 11.1835C40.573 10.7826 39.9006 9.65189 39.0348 9.9911C38.0772 10.3714 37.4559 9.79579 37.3031 9.37435C36.4474 6.96903 34.1961 6.91763 32.4746 6.89708C31.0689 6.8868 30.5392 6.51675 30.0706 5.44772C29.5918 4.38897 26.8211 2.8471 26.3525 3.51524C25.4357 4.82069 24.0911 3.5358 23.2659 4.46092C22.9807 4.78985 22.5223 4.75902 22.3491 4.24506C22.0843 3.47412 21.7583 3.37133 21.249 4.06003C20.6378 4.90292 20.1998 4.82069 19.8025 3.82361C19.5988 3.29938 18.9876 2.93961 18.4477 3.13491C17.9078 3.31994 17.5716 3.96752 17.7448 4.50204C18.2032 5.83833 17.2355 5.9514 16.4409 6.23921C15.2593 6.66066 15.2593 6.65038 14.2203 5.51967C13.1914 7.15405 13.0488 7.21573 11.5921 6.67093C8.68893 5.58135 5.25605 8.11001 5.46997 11.1835C3.96236 10.649 3.97254 10.6592 2.95389 11.7283C2.58717 12.1189 2.46493 12.7562 1.81299 12.859C1.83336 11.7386 2.54642 10.9059 3.21874 10.1864C5.10326 8.17169 7.17113 6.32144 9.87058 5.48883C10.5735 5.27297 11.1235 5.07767 11.5921 4.44036C12.8451 2.73403 14.699 2.06588 16.716 1.94253C20.3831 1.73695 24.0197 1.92197 27.6054 2.96017C29.5816 3.5358 31.4458 4.31701 33.208 5.31409C37.2929 7.62689 41.2453 10.1967 45.381 12.3861C47.6526 13.5888 49.9955 14.6784 52.2162 15.9736C52.97 16.4156 53.3673 16.0969 53.8359 15.6446C56.5965 12.9309 59.7747 10.7518 62.851 8.44923C63.9206 7.64745 65.0106 6.89708 66.182 6.27005C66.4469 5.98223 66.7321 6.01307 67.0377 6.20837C67.9443 6.85596 67.7508 8.37727 69.0139 8.73704C69.1871 8.68565 69.3602 8.64453 69.5334 8.57258C69.9307 8.43895 70.328 8.21281 70.7354 8.49034C70.7558 8.5623 70.7762 8.61369 70.7762 8.61369C70.8577 8.63425 70.8984 8.59313 70.8984 8.50062C70.8984 8.42867 70.8577 8.38755 70.7762 8.36699C70.9494 7.86332 71.4078 7.75024 71.7948 7.55494C71.968 7.47271 72.1412 7.40075 72.3245 7.3288C72.6811 7.19517 73.0478 7.07182 73.3636 6.82512C73.6692 6.52703 74.0053 6.29061 74.4434 6.25977C75.2175 6.06447 76.0019 5.99251 76.7964 5.98223C77.8355 5.61218 79.0069 5.97195 80.0052 5.36548C83.6317 4.88236 87.1155 5.58135 90.5585 6.61954C91.1901 6.84568 91.7504 7.19517 92.3106 7.72969C91.9847 7.22601 91.4753 7.10266 91.1392 6.74289C89.1732 5.48883 87.0747 4.7179 84.6911 4.93376C83.9882 4.99544 83.2751 4.90292 82.6537 4.51232C81.6555 3.47412 81.2887 4.67678 80.7081 5.08795C79.9543 5.27297 79.2718 5.72525 78.467 5.75609C77.7642 5.71497 77.0919 5.9 76.4094 6.00279C75.8287 5.98223 75.2481 6.02335 74.6776 6.17754C73.3126 4.67678 73.6284 6.87652 72.9765 6.96903C72.3245 7.2774 71.6522 7.30824 70.9494 7.20545C70.7354 7.16433 70.5215 7.10266 70.3178 7.02043C69.3704 6.21865 68.0258 7.05126 67.0784 6.24949C66.946 6.13642 66.8951 6.02335 66.9256 5.9C66.9562 5.77665 66.9868 5.71498 67.0275 5.71498C67.3433 5.52995 67.8323 5.61218 67.9647 5.11878C70.2974 3.09379 73.2006 2.38453 76.0426 1.55192C79.1394 0.647359 82.3176 0.297869 85.5162 0.020332C89.5399 -0.339438 92.769 1.51081 95.4175 4.11143C99.2782 7.90443 100.419 12.9104 100.928 18.2452C101.275 21.9252 99.7978 24.937 98.7486 28.1646C98.6772 28.3908 98.5652 28.6066 98.5143 28.8328C98.0049 31.2484 97.8216 33.7976 95.7435 35.5553C95.5398 37.457 93.8997 38.8241 93.7979 40.7874C93.7775 41.0958 93.3395 41.3836 93.095 41.6817L93.1154 41.692Z" fill="#FD308A"/>
<path d="M74.6781 77.2788C74.4336 76.734 74.1891 76.1789 73.9141 75.5519C74.9938 75.3463 74.9633 76.3948 75.5134 76.6826C75.4013 77.1143 75.0855 77.2582 74.6781 77.2788Z" fill="#F31482"/>
<path d="M75.6763 76.4459C75.425 75.2673 75.7544 74.5854 76.6644 74.4004C76.3282 75.0788 76.2671 75.8909 75.6763 76.4459Z" fill="#F31482"/>
<path d="M86.7999 57.8101C86.2498 57.5017 85.8525 57.0802 85.8525 56.3813C86.4841 56.0523 86.8305 56.8541 87.3805 56.6999C87.187 57.07 86.9934 57.44 86.7999 57.8101Z" fill="#EFA0DB"/>
<path d="M67.0481 5.73586L67.099 6.27038C66.7934 6.27038 66.498 6.27038 66.1924 6.28066C66.3554 5.91061 66.661 5.74614 67.0481 5.72559V5.73586Z" fill="#F70D7F"/>
<path d="M67.9753 5.13965C67.8836 5.68444 67.5067 5.77696 67.0381 5.73584C67.2113 5.31439 67.5984 5.24244 67.9753 5.13965Z" fill="#F70D7F"/>
<path d="M69.9715 16.2926C69.3705 17.5672 67.7814 17.7831 67.1295 19.0166C66.8239 19.5922 66.2331 19.9108 66.447 20.8462C66.6915 21.9153 65.683 22.5834 64.7458 22.1106C64.2671 21.8742 63.7679 21.6377 63.3095 21.3602C62.6474 20.9593 62.464 19.5819 63.0243 19.3763C64.756 18.7493 64.3282 17.5364 64.0633 16.3029C64.0124 16.087 64.0124 15.8609 63.992 15.6861C64.5217 15.1619 65.2857 16.1281 65.6932 15.3161C65.7849 15.2544 65.8663 15.1927 65.958 15.1208C66.3859 14.9255 66.7424 14.6582 67.0786 14.2984C68.6167 12.6332 69.0242 12.7154 70.216 14.8227C70.1549 15.4805 69.6558 15.7169 69.1566 15.9534C68.4639 16.3851 67.6999 16.6935 67.0786 17.2485C66.8035 17.5261 66.5488 17.8139 66.3451 18.1531C66.1618 18.3792 65.9478 18.5643 65.7645 18.7801C65.5506 18.9754 65.3774 19.2016 65.1737 19.4072C64.9292 19.6333 64.7051 19.9006 64.4504 20.0856C64.4708 20.0753 64.5523 20.1987 64.5523 20.1987C64.5523 20.1987 64.5523 20.0445 64.5828 20.0239C64.8579 19.7669 65.1227 19.5202 65.3774 19.2735C65.5811 19.0474 65.8052 18.8624 65.9988 18.6362C66.2025 18.4306 66.4062 18.2251 66.559 17.9681C66.7118 17.7214 66.9054 17.4952 67.1295 17.2999C67.7611 16.8065 68.4436 16.3954 69.1668 16.0664C69.3705 16.015 69.5641 16.015 69.7576 16.087C69.8289 16.1589 69.9002 16.2309 69.9817 16.3029L69.9715 16.2926Z" fill="#FD308A"/>
<path d="M9.47376 37.8271C8.41435 36.3572 8.32267 34.5892 8.06801 32.9034C7.93558 31.968 6.66226 31.1765 7.67073 30.0869C7.90502 29.83 8.02726 29.3468 8.54678 29.6244C9.27002 32.1119 9.83029 34.6303 9.99327 37.2309C9.80991 37.4262 9.77935 37.7449 9.47376 37.8271Z" fill="#FAE9F1"/>
<path d="M41.724 19.0678C43.2418 20.0135 44.7393 20.99 46.2774 21.9049C47.5202 22.645 47.4285 23.3851 46.2367 24.3616C44.7698 22.3263 42.5288 21.1339 40.9702 19.1809C41.1943 18.9239 41.4388 18.8931 41.724 19.0781V19.0678Z" fill="#F7DEEB"/>
<path d="M53.4794 90.1684C52.6135 92.07 51.6356 93.91 50.3623 95.7808C50.1586 93.1973 51.0006 91.1175 52.8886 89.5413C53.4081 89.4386 53.6831 89.5722 53.4794 90.1581V90.1684Z" fill="#F7E2EE"/>
<path d="M47.2557 42.5247C45.6869 40.5408 45.9212 38.1458 45.748 35.8433C46.7565 36.275 46.7056 37.4263 47.2964 38.1458C47.6428 38.4028 47.8261 38.7728 47.6631 39.1429C47.1538 40.2325 47.3677 41.394 47.2455 42.5247H47.2557Z" fill="#EF1C8E"/>
<path d="M68.4438 56.6895C68.6883 55.8569 69.3403 55.3223 69.87 54.6953C70.1043 55.2709 70.8683 55.4662 70.6543 56.4428C70.4302 57.4193 70.7868 58.5294 70.8784 59.5882C68.9837 58.6528 68.9022 58.4164 69.87 56.2063C69.2282 55.9185 68.9532 56.7203 68.4438 56.6895Z" fill="#F90A79"/>
<path d="M12.4479 24.1455C13.2934 25.6051 12.9572 27.3218 13.5277 28.8945C14.0472 30.3336 14.4445 31.8651 14.8825 33.3659C13.6601 32.8417 13.9453 31.0531 12.6109 30.6316C13.7518 28.4422 11.6432 26.335 12.4479 24.1558V24.1455Z" fill="#F30C76"/>
<path d="M97.7707 17.2175C97.7605 17.8342 97.4447 18.1529 96.8234 18.1735C96.4668 18.3379 96.5891 18.4921 96.8234 18.6566C95.5602 19.0369 94.5517 18.7696 94.1341 17.8754C93.9609 17.5053 94.0526 17.2895 94.5212 17.0222C95.7028 16.354 96.7011 17.0016 97.7707 17.2278V17.2175Z" fill="#FD308A"/>
<path d="M45.0146 85.7075C45.3202 86.0365 45.636 86.3757 45.9926 86.756C46.7871 86.2421 46.0639 85.173 46.7667 84.7002C46.7973 85.502 47.0112 86.2421 47.3983 86.941C47.6428 87.3728 47.8058 87.7942 47.3168 88.1848L47.1233 88.1334L47.0825 87.9381C47.0825 87.9381 47.0112 88.1231 47.0112 88.1334L46.8177 88.1848C45.0758 88.2054 45.198 86.8485 45.0248 85.7178L45.0146 85.7075Z" fill="#F9117B"/>
<path d="M42.6103 81.4312C43.6391 82.3152 43.9753 83.6103 44.5253 84.7719C44.2401 84.7924 43.904 84.4429 43.7002 84.7616C43.4659 85.1316 43.904 85.4503 43.9651 85.8101C43.8428 85.9951 43.69 86.1493 43.4965 86.2623C43.0992 86.0465 43.0381 85.6662 43.0177 85.255C42.6816 84.8027 42.4982 84.2579 42.0806 83.8673C43.3131 83.2917 42.6001 82.2843 42.6001 81.4414L42.6103 81.4312Z" fill="#F9117B"/>
<path d="M72.783 64.8511C73.7099 63.8232 74.2295 65.0258 74.5962 65.3959C75.0953 65.8893 74.7286 66.6602 74.2295 67.205C73.9035 67.4928 73.5673 67.4928 73.2312 67.205C73.4756 66.9377 73.7303 66.6705 74.0665 66.3004C73.5979 65.7865 72.6607 66.6602 72.3857 65.7865C72.2533 65.365 72.4264 65.0669 72.783 64.8511Z" fill="#FB077A"/>
<path d="M49.5986 24.166C50.1283 24.5258 50.658 24.8856 51.1877 25.2453C50.3014 25.8415 50.607 27.959 48.692 27.2189C48.1928 26.7152 48.0298 26.0368 47.8159 25.3995C48.091 24.9575 48.6308 25.1528 48.9772 24.9061C49.0892 24.793 49.2013 24.6697 49.2726 24.5258C49.3541 24.3819 49.4661 24.2688 49.5986 24.166Z" fill="#F098D6"/>
<path d="M77.0107 9.12772C77.7849 7.85996 78.8851 7.38712 80.3112 7.7092C80.301 7.88395 80.2908 8.04841 80.2806 8.22316C80.1482 8.31567 80.1075 8.40818 80.1584 8.49042C80.1991 8.57265 80.2501 8.62405 80.2908 8.62405C80.2908 8.78851 80.3112 8.96326 80.3214 9.12772C79.8528 9.48749 79.374 9.4361 78.9054 9.12772C78.2739 8.26428 77.6423 9.30247 77.0209 9.12772H77.0107Z" fill="#FA0A7F"/>
<path d="M38.6069 80.6088C37.4456 79.6015 38.4032 78.4913 38.0365 77.4429C39.7682 78.3269 38.2708 79.6015 38.6069 80.6088Z" fill="#F90676"/>
<path d="M48.6816 27.2192C49.354 27.1575 49.904 26.9005 50.0568 26.1913C50.1994 25.554 50.556 25.2662 51.1774 25.2456C51.5543 26.4585 50.6884 27.3117 50.067 27.9901C49.4049 28.72 48.9159 27.9285 48.6816 27.2192Z" fill="#F4BEDF"/>
<path d="M60.9566 15.3366C60.8241 15.1516 60.6917 14.9768 60.5593 14.7918C60.1518 14.2676 60.7834 14.1442 60.926 13.8359C60.9667 13.7125 60.9871 13.5892 60.9973 13.4658C61.7206 12.8182 62.6577 13.435 63.4217 13.0444C63.6967 12.921 63.982 12.7977 64.257 12.6743C64.3181 12.7463 64.3894 12.8182 64.4506 12.8902C64.4811 13.106 64.3996 13.2499 64.2163 13.3527C63.6153 13.692 63.0041 14.0414 62.3929 14.3807C62.0975 14.3909 61.9345 14.5451 61.8937 14.8432C61.7205 15.2749 61.3844 15.3983 60.9566 15.3469V15.3366Z" fill="#F5C1E2"/>
<path d="M57.6359 17.68C57.3303 16.1587 58.3897 15.9531 59.4593 15.7578C59.5408 15.7578 59.6121 15.7681 59.6936 15.7784C59.8362 15.8606 59.9483 15.9634 60.0298 16.1073C60.0298 16.1895 60.0399 16.2615 60.0501 16.3437C59.5917 16.8063 59.1333 17.2688 58.6749 17.7417C58.5934 17.7314 58.5221 17.7108 58.4406 17.7006C58.1452 17.3716 58.2267 17.9473 58.0332 17.8753C57.8498 17.9062 57.7174 17.8342 57.6359 17.68Z" fill="#EA64B5"/>
<path d="M10.9304 41.5071C10.1563 40.5203 9.77935 39.3691 9.56543 38.1459C9.74879 37.9711 9.79972 37.673 10.0849 37.6011C10.798 38.8037 11.0323 40.1606 11.3277 41.4866C11.1953 41.7024 11.0629 41.723 10.9304 41.4866V41.5071Z" fill="#F2BED9"/>
<path d="M37.894 74.2461C38.8618 75.6749 40.0943 76.9187 40.8074 78.5222C39.2183 77.5251 37.9857 76.2814 37.894 74.2461Z" fill="#F90676"/>
<path d="M65.6829 15.3157C65.0309 14.8634 65.3569 14.3392 65.4791 13.7533C65.6727 12.8487 65.0106 13.4038 64.6948 13.3935C64.5725 13.2599 64.5114 13.0954 64.5216 12.9104C64.542 12.7254 64.6235 12.5712 64.7559 12.4478L64.7151 12.4889C64.8476 12.3759 65.0004 12.2936 65.1735 12.2422C65.469 12.0983 65.7032 11.7283 66.1107 11.9647L66.182 12.0264C66.9358 13.2702 67.384 14.4625 65.6829 15.3363V15.3157Z" fill="#FD308A"/>
<path d="M7.925 18.8418C7.97593 19.7669 7.66015 20.3015 6.96746 20.6304C6.66186 20.7743 6.38682 20.7846 6.21365 20.4043C6.09141 20.1164 5.95899 19.7156 6.34608 19.6539C6.92671 19.5614 7.12026 18.9035 7.91481 18.8315L7.925 18.8418Z" fill="#FB0980"/>
<path d="M66.6103 79.0774C66.0296 80.0539 65.5916 81.1435 64.3081 81.8939C64.4507 80.352 65.6935 79.6941 66.0806 78.584C66.3964 78.5943 66.4575 78.8821 66.6103 79.0774Z" fill="#E8469B"/>
<path d="M40.6956 81.0613C40.6039 81.4416 40.5326 81.9145 40.0029 81.75C39.3917 81.5547 39.2593 80.9996 39.3102 80.4137C39.351 79.982 39.5343 79.6531 40.0538 79.797C40.2779 79.8587 40.4817 79.9717 40.6956 80.0642C41.0012 80.3932 40.6141 80.7324 40.6956 81.0613Z" fill="#F90676"/>
<path d="M53.4795 90.1687C53.286 89.9631 53.0822 89.7576 52.8887 89.552C52.9498 88.6269 53.5915 88.1232 54.2537 87.6298C54.4778 87.4448 54.6815 87.4653 54.8751 87.6914C54.6815 88.6782 54.1314 89.4492 53.4897 90.179L53.4795 90.1687Z" fill="#F1CDE2"/>
<path d="M54.865 87.6812C54.6613 87.6606 54.4576 87.6401 54.2437 87.6195C54.702 86.9925 54.8141 86.2216 55.1299 85.5431C55.2419 85.3067 55.8429 84.9778 56.118 85.2656C56.4032 85.574 56.0976 85.9646 55.7513 86.201V86.2216C55.5781 86.7869 55.3336 87.3009 54.865 87.6812Z" fill="#F6D8E7"/>
<path d="M35.0213 74.349C35.4492 74.1948 35.5408 73.465 36.1215 73.6294C36.4271 73.7117 36.5799 74.0817 36.5595 74.4004C36.5187 74.9966 35.9585 75.048 35.551 75.2124C35.3677 75.2844 35.0926 75.2124 34.8787 75.1405C34.7463 75.0994 34.6648 74.9246 34.5527 74.8218C34.7157 74.6676 34.8685 74.5135 35.0111 74.3593L35.0213 74.349Z" fill="#FB0885"/>
<path d="M57.2794 82.9731C56.9228 81.2874 58.6342 81.2874 59.2046 79.9922C59.5611 81.164 58.787 81.421 58.624 81.9555C58.2165 82.2022 57.8804 82.5209 57.6664 82.9526L57.697 82.9217C57.5748 83.1068 57.4322 83.1376 57.2692 82.9731H57.2794Z" fill="#ED2C8A"/>
<path d="M44.7803 91.2273C44.5053 91.1964 44.271 91.0525 44.271 90.8161C44.271 90.2199 44.5053 89.7368 45.1572 89.6443C45.3915 89.6134 45.6462 89.7573 45.6767 90.004C45.7379 90.6722 45.2183 90.9394 44.7803 91.2273Z" fill="#F9117B"/>
<path d="M44.9227 88.1436C44.7597 88.3081 44.6273 88.524 44.4235 88.6165C44.0364 88.8015 43.6188 89.2332 43.191 88.7193C43.0789 88.5753 43.0789 88.2567 43.14 88.0511C43.3539 87.2905 43.8836 87.4138 44.4337 87.6502C44.505 87.6811 44.5865 87.7119 44.6578 87.7427C44.7189 87.8969 44.8004 88.0306 44.9227 88.1436Z" fill="#F9117B"/>
<path d="M8.54646 29.6245C8.25105 29.7787 7.96582 29.9328 7.67041 30.087C7.67041 28.9769 7.67041 27.8667 7.67041 26.7566C7.82321 26.5407 7.97601 26.5305 8.12881 26.7566C8.26123 27.7126 8.74 28.6171 8.54646 29.6245Z" fill="#F1C7E4"/>
<path d="M23.2764 63.3916C23.7959 64.3064 24.4071 65.1904 24.6414 66.2492H24.6515C23.6533 65.7455 23.1541 64.8512 22.7568 63.8644C22.8689 63.7411 22.9606 63.5972 23.0319 63.443C23.1134 63.4224 23.1949 63.4019 23.2764 63.3916Z" fill="#ED2587"/>
<path d="M63.3097 83.374C63.0245 83.8777 62.7393 84.3917 62.4439 84.8953C62.0873 85.1009 61.7512 85.1009 61.466 84.7617C61.3233 83.2198 62.617 83.7132 63.3505 83.4049L63.3097 83.374Z" fill="#EEB9DC"/>
<path d="M19.3749 58.262C18.7637 57.6966 18.2951 57.049 18.1016 56.2267C18.1729 56.0108 18.3155 55.8669 18.509 55.7744C18.8146 56.1033 19.1202 56.422 19.4258 56.7509C19.6295 56.9257 19.8842 57.0388 20.0472 57.2752C20.0981 57.4602 20.0879 57.6349 20.0166 57.8097C19.925 57.9742 19.7925 58.1078 19.6397 58.2003C19.5481 58.2209 19.4564 58.2414 19.3749 58.2722V58.262Z" fill="#EBA3CA"/>
<path d="M57.6356 17.6804C57.8393 17.6804 58.0431 17.6598 58.2468 17.6495C58.3283 17.6392 58.4098 17.6187 58.4811 17.6084C58.5422 17.6598 58.6135 17.7009 58.6746 17.742C58.2468 18.2868 57.3911 18.3588 57.1976 19.14C56.9022 19.1914 56.5762 19.2942 56.403 18.9652C56.2401 18.6672 56.3725 18.3896 56.6679 18.2251C56.9939 18.0401 57.3198 17.8551 57.6356 17.6701V17.6804Z" fill="#E373B2"/>
<path d="M16.1864 51.9404C16.655 52.7216 17.1236 53.5029 17.6024 54.2841C17.5718 54.3663 17.5311 54.4588 17.5005 54.5411C17.3171 54.5102 17.1338 54.4588 16.9606 54.3869C16.3188 53.8729 15.9725 53.1739 15.728 52.4133C15.8401 52.3002 15.9114 52.1563 15.9623 52.0124L16.1864 51.9404Z" fill="#E491BA"/>
<path d="M84.5587 39.6467C84.5689 39.8831 84.5587 40.1401 84.304 40.2017C84.0595 40.2634 83.8558 40.027 83.8863 39.8214C84.0086 39.0094 84.0697 38.1665 84.7726 37.5806C85.0986 37.9095 85.0069 38.3001 85.0069 38.6702C84.7115 38.9271 84.8235 39.3794 84.5587 39.6467Z" fill="#F22C9D"/>
<path d="M56.7394 38.1665C56.5866 39.0505 56.0773 39.6673 55.3337 40.1195C55.2828 39.0916 55.3948 38.1768 56.7394 38.1665Z" fill="#EF3BB4"/>
<path d="M49.6597 24.7831C49.6495 25.1634 49.8838 25.8007 49.0994 25.5129C48.6614 25.3484 48.2539 25.3176 47.8159 25.3998C48.3151 24.8448 48.4984 23.8271 49.6088 24.1663C49.6393 24.2691 49.6597 24.3719 49.6699 24.4747C49.5273 24.5364 49.4865 24.6083 49.5273 24.6803C49.568 24.7522 49.6189 24.7831 49.6597 24.7831Z" fill="#EA2B92"/>
<path d="M64.9395 66.0539C64.8071 66.4753 64.4913 66.6706 64.0736 66.6706C63.7375 66.6706 63.4217 66.4856 63.5439 66.1156C63.6866 65.7147 64.1042 65.5811 64.5015 65.5811C64.746 65.5811 64.9191 65.7764 64.9293 66.0642L64.9395 66.0539Z" fill="#FC0382"/>
<path d="M12.2645 45.8244C11.5718 45.3208 11.9079 44.447 11.5718 43.82C11.6227 43.6041 11.7449 43.4397 11.9385 43.3472C12.458 43.9125 12.6006 44.6423 12.8247 45.3516C12.7025 45.4852 12.6108 45.6394 12.5293 45.8039C12.4376 45.8039 12.346 45.8244 12.2645 45.8347V45.8244Z" fill="#E995C0"/>
<path d="M20.8214 59.5781C21.4529 60.0098 21.6872 60.678 21.8502 61.3873C22.054 61.6648 22.0132 61.9115 21.728 62.1068C21.29 61.4181 20.6991 60.8219 20.4648 60.0099C20.5565 59.9071 20.6176 59.794 20.6482 59.6604L20.8214 59.5781Z" fill="#E06CA4"/>
<path d="M78.895 9.12793C79.3636 9.12793 79.8424 9.12793 80.311 9.12793C80.4128 9.47742 80.8203 9.88859 80.5554 10.1558C80.0461 10.6801 79.8526 9.95026 79.5368 9.7344C79.3025 9.56993 79.1089 9.33351 78.895 9.12793Z" fill="#FD308A"/>
<path d="M12.8962 45.7523C13.4463 46.2662 13.487 47.0269 13.8028 47.6642C14.0575 48.1782 13.7825 48.209 13.3852 48.1268C12.5906 47.5717 12.8249 46.5027 12.2646 45.8345C12.3665 45.8654 12.4684 45.8448 12.5702 45.7934C12.6721 45.6187 12.7842 45.6187 12.9064 45.7626L12.8962 45.7523Z" fill="#F1D2E2"/>
<path d="M69.564 73.4341C69.9918 72.766 70.4095 72.0876 70.8373 71.4194C70.9086 71.4503 70.9901 71.4708 71.0614 71.5017C71.1123 71.6558 71.1938 71.7895 71.2957 71.9128C71.1327 72.4885 70.9086 73.023 70.4196 73.4033C70.1446 73.6706 69.8594 73.6706 69.564 73.4341Z" fill="#E791C1"/>
<path d="M15.2085 49.1138C15.8808 48.8055 15.7178 47.9112 16.2985 47.4897C16.4139 48.3463 16.0506 48.8843 15.2085 49.1036V49.1138Z" fill="#F70A78"/>
<path d="M61.3538 23.0767C61.0482 23.0459 60.9871 22.8403 61.0075 22.6141C61.038 22.2133 61.2214 21.874 61.6187 21.7713C61.8428 21.7096 62.077 21.8946 62.0974 22.131C62.1382 22.6655 61.7511 22.8917 61.3538 23.0767Z" fill="#FC0781"/>
<path d="M77.4791 12.4582C77.3263 12.4274 77.1735 12.4171 77.0309 12.3657C76.6947 12.2424 76.5521 11.9854 76.6234 11.6359C76.6743 11.3892 76.8271 11.1733 77.092 11.2556C77.4281 11.3481 77.4892 11.6873 77.5606 11.9957C77.5198 12.1499 77.4994 12.3041 77.4892 12.4685L77.4791 12.4582Z" fill="#F32491"/>
<path d="M20.2919 57.7379C20.465 58.3547 20.3734 59.0434 20.8317 59.5779H20.7095L20.5975 59.6087L20.516 59.5882C19.9863 59.2798 19.6603 58.7864 19.3853 58.2622C19.4362 58.1902 19.4973 58.1286 19.5482 58.0669C19.6501 58.0052 19.7316 57.923 19.7927 57.8099L19.9557 57.666C20.0983 57.5426 20.2104 57.5735 20.2919 57.7482V57.7379Z" fill="#EB9AC7"/>
<path d="M79.1295 18.7798C79.099 19.1293 78.9462 19.3862 78.5692 19.3246C78.3248 19.2937 78.1618 19.0573 78.2025 18.8106C78.2535 18.5022 78.335 18.0705 78.6507 18.0602C78.9767 18.05 79.0378 18.4817 79.1295 18.7798Z" fill="#FA178C"/>
<path d="M21.7383 62.1067C21.779 61.8703 21.8198 61.6236 21.8605 61.3872C22.3291 62.0554 22.8079 62.7235 23.2765 63.3916H23.0625C22.9199 63.5767 22.7671 63.5767 22.6041 63.4328C22.105 63.1347 21.7994 62.7029 21.7383 62.1067Z" fill="#E470B1"/>
<path d="M70.8276 71.4193C71.2452 70.8848 71.561 70.2578 72.2944 70.0728H72.2843C72.3861 70.7717 72.0602 71.2343 71.4591 71.5427C71.3063 71.6455 71.1434 71.6763 70.96 71.6249C70.9091 71.5632 70.8581 71.4913 70.8174 71.4193H70.8276Z" fill="#E97ABC"/>
<path d="M73.2311 67.2051C73.5571 67.2051 73.8933 67.2051 74.2192 67.2051C74.1887 67.8938 73.8729 68.3872 73.221 68.6339L73.2413 68.6544C73.2413 68.3358 73.2311 68.0171 73.221 67.6985C73.1191 67.5854 73.0885 67.4826 73.1293 67.3798C73.1598 67.277 73.2006 67.2256 73.2311 67.2256V67.2051Z" fill="#F52B96"/>
<path d="M28.0537 67.6778C27.8806 67.9348 27.6463 68.089 27.3407 67.9245C27.2592 67.8731 27.1879 67.647 27.2286 67.5544C27.3712 67.2564 27.6463 67.205 27.9417 67.318C28.1148 67.39 28.1454 67.5236 28.0435 67.6778H28.0537Z" fill="#F41983"/>
<path d="M52.3591 31.4542C52.1147 31.4747 51.8804 31.4131 51.8804 31.1355C51.8804 30.8888 52.0637 30.7038 52.3184 30.6524C52.5731 30.601 52.7768 30.7038 52.787 30.9813C52.787 31.2486 52.6138 31.4028 52.3591 31.4542Z" fill="#F536A8"/>
<path d="M11.949 43.3367C11.8267 43.4909 11.7045 43.6553 11.5823 43.8095C11.3378 43.2133 10.9609 42.6582 10.9813 41.9695C11.1239 41.8051 11.2767 41.8051 11.4193 41.9695C11.7147 42.3807 11.9897 42.7919 11.949 43.3367Z" fill="#F2BBDA"/>
<path d="M61.4659 84.7617C61.7919 84.8028 62.1178 84.8542 62.4438 84.8953C62.3623 85.3579 62.2299 85.9644 61.7206 85.8924C61.0584 85.7896 61.5372 85.1523 61.4659 84.7617Z" fill="#E24FA3"/>
<path d="M42.091 83.8574C43.0282 83.8985 43.0689 84.5461 43.0282 85.2451C42.5596 85.1115 42.2744 84.7723 42.0706 84.3611C41.9178 84.248 41.8771 84.135 41.928 84.0219C41.979 83.9088 42.0299 83.8574 42.0808 83.8574H42.091Z" fill="#F52293"/>
<path d="M42.0912 83.8574C42.0912 84.0219 42.0912 84.1864 42.081 84.3611C41.9486 84.4228 41.8161 84.4844 41.6735 84.5358C41.4087 84.6386 41.0725 84.8237 40.9299 84.4331C40.8077 84.0836 41.1133 83.9294 41.429 83.8985C41.643 83.878 41.8671 83.878 42.0912 83.8574Z" fill="#F9117B"/>
<path d="M50.454 83.9906C50.3623 84.114 50.2707 84.3401 50.1077 84.4326C49.8123 84.5971 49.7002 84.3298 49.7206 84.114C49.741 83.929 49.8632 83.672 50.016 83.5897C50.2605 83.4561 50.4031 83.6617 50.454 83.9804V83.9906Z" fill="#FA0A85"/>
<path d="M22.5836 14.4009C22.8179 14.442 23.0216 14.5448 23.0216 14.8018C23.0216 15.0587 22.8281 15.2335 22.604 15.1615C22.4206 15.1101 22.2067 14.9046 22.166 14.7401C22.1048 14.4728 22.3595 14.4112 22.5836 14.4009Z" fill="#F31C85"/>
<path d="M83.8456 17.0532C84.0493 17.2177 84.0799 17.4336 84.0188 17.6597C83.9474 17.8961 83.7641 18.0709 83.5196 17.9886C83.2751 17.9064 83.2344 17.6494 83.3362 17.4233C83.4279 17.1971 83.6011 17.0635 83.8456 17.0532Z" fill="#F92198"/>
<path d="M31.7721 80.1155C31.711 79.5913 31.5786 79.0773 31.8944 78.4194C32.1694 79.0362 32.4037 79.5501 32.638 80.0744C32.363 80.3416 32.0676 80.3108 31.7721 80.1052V80.1155Z" fill="#F546A6"/>
<path d="M20.2918 57.7378C20.1797 57.7378 20.0677 57.707 19.9556 57.6556C19.7824 57.3472 19.6093 57.0388 19.4463 56.7305C20.8215 56.823 20.852 56.8641 20.2918 57.7378Z" fill="#F4108F"/>
<path d="M15.6362 50.6349C15.6362 50.789 15.677 50.9124 15.7686 51.0255C15.8705 51.2105 15.9927 51.3852 16.1354 51.5394C16.1557 51.6731 16.1659 51.8067 16.1863 51.9403L16.0233 52.0945C15.8501 52.1356 15.6871 52.1048 15.5343 52.002C15.0861 51.817 14.9741 51.3852 14.8213 50.9843C14.913 50.7582 14.9741 50.5115 15.2389 50.3984C15.4121 50.3984 15.5445 50.4807 15.6362 50.6349Z" fill="#EA8EB8"/>
<path d="M18.5193 55.7644C18.3869 55.9186 18.2443 56.0728 18.1119 56.2167C17.8368 55.8261 17.5007 55.4663 17.5312 54.9318C17.5414 54.8496 17.5516 54.757 17.5618 54.6748C17.6229 54.5515 17.6331 54.4178 17.5924 54.2739C17.898 54.7673 18.2137 55.2607 18.5193 55.7541V55.7644Z" fill="#F4DADE"/>
<path d="M59.4691 15.7684C59.8562 15.2236 60.3961 15.1619 60.9869 15.3058C60.9462 15.902 60.447 16.087 60.0497 16.3543L59.9682 16.1384C59.8256 16.087 59.734 15.9842 59.683 15.8403C59.6117 15.7992 59.5302 15.7787 59.4487 15.7581L59.4691 15.7684Z" fill="#EDA3CA"/>
<path d="M68.8921 75.7468C68.7494 76.1682 68.5865 76.5691 68.1484 76.7644C67.9345 77.0008 67.741 76.9803 67.5576 76.7233C67.5882 76.1477 67.9753 75.9112 68.4439 75.7571C68.5865 75.5515 68.7291 75.5515 68.8819 75.7468H68.8921Z" fill="#E78BBE"/>
<path d="M69.9108 74.318C69.7885 74.76 69.5746 75.13 69.1366 75.3253C68.9532 75.4795 68.78 75.4692 68.5967 75.3253C68.6782 74.8833 68.8615 74.5133 69.2792 74.3077C69.4931 74.0713 69.6968 74.0713 69.9108 74.3077V74.318Z" fill="#E182B3"/>
<path d="M66.6103 79.0773C66.3047 79.0567 66.1824 78.8306 66.0806 78.5839C66.2741 78.1007 66.6714 77.8643 67.1196 77.6793L67.089 77.6382C67.2418 78.2241 66.8446 78.625 66.6103 79.0773Z" fill="#EDADCD"/>
<path d="M8.12873 26.7465H7.90462H7.68052C7.64996 26.1606 7.33418 25.5336 7.85369 24.9888C8.33246 25.5233 8.0778 26.1606 8.12873 26.7465Z" fill="#EC97CC"/>
<path d="M34.1556 71.4914C34.4205 72.324 33.7685 71.9745 33.575 71.8717C33.1166 71.625 33.1472 71.2858 33.6056 71.0186C33.7584 71.2139 33.9519 71.3578 34.1556 71.4914Z" fill="#ED3A98"/>
<path d="M49.0075 86.3241C48.9056 86.396 48.7936 86.5399 48.7019 86.5296C48.4574 86.5091 48.3658 86.3035 48.488 86.0979C48.5389 86.0157 48.7528 85.9437 48.8445 85.9746C48.9362 86.0157 48.9566 86.2007 49.0177 86.3138L49.0075 86.3241Z" fill="#F41A7E"/>
<path d="M72.5895 56.8023C72.4877 56.8743 72.3756 57.0182 72.2839 57.0079C72.0395 56.9873 71.9478 56.7817 72.07 56.5762C72.121 56.4939 72.3349 56.422 72.4164 56.4631C72.508 56.5042 72.5284 56.679 72.5895 56.8023Z" fill="#F81483"/>
<path d="M61.8938 14.8429C61.6188 14.6682 61.4151 14.4112 61.7003 14.1439C61.9855 13.8869 62.23 14.1028 62.393 14.3906C62.23 14.5448 62.0568 14.699 61.8938 14.8532V14.8429Z" fill="#F2D8E6"/>
<path d="M8.06802 11.8106C7.99671 11.7078 7.8541 11.5947 7.86429 11.5022C7.89485 11.2555 8.07821 11.163 8.28194 11.2863C8.36343 11.3377 8.43474 11.5433 8.39399 11.6358C8.35324 11.7283 8.18007 11.7489 8.05783 11.8106H8.06802Z" fill="#F31676"/>
<path d="M83.1431 44.3547C83.194 43.9949 83.1736 43.5632 83.7237 43.6043C83.7848 43.6043 83.8765 43.6968 83.8765 43.7585C83.9172 44.3033 83.5098 44.3033 83.1431 44.3547Z" fill="#FA168C"/>
<path d="M83.1429 44.3545C83.2142 44.5601 83.3263 44.7657 83.3568 44.9815C83.3976 45.2179 83.2652 45.4544 83.041 45.4646C82.5521 45.4955 82.6743 45.0946 82.7355 44.8479C82.7864 44.6629 83.0003 44.519 83.1327 44.3648L83.1429 44.3545Z" fill="#FA168C"/>
<path d="M13.3853 48.1169C13.5279 47.9627 13.6603 47.8085 13.8029 47.6543C14.1187 47.8702 14.2817 48.1785 14.3224 48.5589C14.4854 49.0934 14.2613 49.2373 13.7723 49.1242C13.6399 48.785 13.5177 48.4561 13.3853 48.1169Z" fill="#E79BBF"/>
<path d="M15.3106 50.4296C15.1476 50.6147 14.9847 50.7997 14.8217 50.9847C14.6689 50.6661 14.5161 50.3474 14.3633 50.0288C14.4346 49.8746 14.5161 49.7307 14.5874 49.5765C14.6587 49.5354 14.73 49.4942 14.8013 49.4531C14.9745 49.484 15.0865 49.5868 15.1273 49.7718C15.1375 49.9157 15.2088 50.0185 15.331 50.0904C15.4227 50.2138 15.4125 50.3269 15.3004 50.4399L15.3106 50.4296Z" fill="#EAAACB"/>
<path d="M13.3446 15.4802C13.1613 15.7064 13.0594 15.9119 12.8964 16.0456C12.7029 16.1998 12.438 16.1381 12.3973 15.9017C12.3667 15.7372 12.5297 15.4494 12.6723 15.3877C12.8251 15.3158 13.0696 15.4391 13.3446 15.4905V15.4802Z" fill="#ECAACF"/>
<path d="M57.2793 82.9733C57.4219 82.963 57.5645 82.9424 57.7071 82.9219C57.6766 83.2919 57.7479 83.7134 57.2793 83.8778C57.1061 84.0115 56.9329 84.0115 56.7598 83.8778C56.9329 83.5695 57.1061 83.2611 57.2793 82.963V82.9733Z" fill="#E5579F"/>
<path d="M66.3553 61.7466C66.2942 61.87 66.2534 62.0139 66.1515 62.0961C66.0191 62.2195 65.8459 62.1783 65.8256 61.9933C65.8154 61.8802 65.8969 61.6952 65.9886 61.6541C66.07 61.613 66.2228 61.7158 66.3451 61.7466H66.3553Z" fill="#F4197F"/>
<path d="M40.2067 18.6569C39.8603 18.5232 39.4325 18.3074 39.6057 17.927C39.7687 17.5775 40.0743 17.8242 40.2271 18.1121C40.3595 18.2354 40.4002 18.3588 40.3493 18.4718C40.2984 18.5849 40.2576 18.6466 40.2169 18.6466L40.2067 18.6569Z" fill="#E5408E"/>
<path d="M96.8236 18.6565C96.4874 18.6051 95.9577 18.6256 96.0902 18.1323C96.1818 17.7725 96.5689 18.1528 96.8236 18.1836C96.8236 18.3481 96.8236 18.5023 96.8236 18.6668V18.6565Z" fill="#FC108A"/>
<path d="M69.9104 74.3182C69.6965 74.3182 69.4927 74.3182 69.2788 74.3182C69.3705 74.0201 69.4622 73.722 69.5538 73.4342C69.8391 73.4342 70.1243 73.4136 70.4095 73.4033C70.2363 73.7117 70.0734 74.0201 69.9002 74.3182H69.9104Z" fill="#F5C2E1"/>
<path d="M60.0602 34.4144C59.7648 34.2911 59.3777 34.8153 59.1435 34.2808C59.1231 34.2191 59.1435 34.0958 59.174 34.0752C59.612 33.8388 59.8361 34.1266 60.0501 34.435V34.4144H60.0602Z" fill="#F676CC"/>
<path d="M27.7585 61.2741C27.6261 61.3049 27.4529 61.3974 27.351 61.3563C27.2492 61.3152 27.1473 61.1096 27.1677 60.9966C27.1982 60.8013 27.3816 60.7704 27.5242 60.9143C27.6261 61.0171 27.677 61.161 27.7483 61.2844L27.7585 61.2741Z" fill="#F74ABC"/>
<path d="M73.221 68.6236C73.2414 69.0142 73.2108 69.3842 72.7932 69.5898C72.6302 69.744 72.4672 69.7543 72.3042 69.5898C72.457 69.1067 72.7524 68.7777 73.2414 68.6338L73.221 68.6133V68.6236Z" fill="#E03C8A"/>
<path d="M84.62 35.1549C84.8034 35.124 84.9256 35.2268 84.8645 35.4015C84.8237 35.5146 84.6607 35.5866 84.5385 35.638C84.5079 35.6482 84.3653 35.5146 84.3755 35.5146C84.4468 35.3913 84.5385 35.2679 84.6302 35.1549H84.62Z" fill="#F2026D"/>
<path d="M16.9812 50.5838C16.9099 50.7585 16.7775 50.8099 16.6349 50.6866C16.5432 50.5941 16.5025 50.4502 16.4312 50.3268C16.5534 50.2857 16.7164 50.1829 16.7979 50.2343C16.8895 50.2857 16.9201 50.4604 16.9812 50.5838Z" fill="#F70A78"/>
<path d="M13.7725 49.1239C14.0781 49.052 14.2207 48.8259 14.3225 48.5586C14.4855 48.7436 14.6383 48.9286 14.8013 49.1034C14.9032 49.2062 14.9337 49.2987 14.893 49.3809C14.8522 49.4632 14.8115 49.5043 14.7809 49.5043C14.7606 49.5968 14.7198 49.679 14.6689 49.7613C14.4753 49.7613 14.3022 49.7099 14.1494 49.6071C13.8743 49.5557 13.803 49.3604 13.7826 49.1137L13.7725 49.1239Z" fill="#E179AE"/>
<path d="M40.6956 81.0615C40.1251 80.7326 40.6039 80.3934 40.6956 80.0645C40.8484 80.0645 41.0012 80.0645 41.154 80.0645C41.154 80.4653 41.0623 80.8251 40.6956 81.0615Z" fill="#F03590"/>
<path d="M31.772 80.1158C32.0572 80.1055 32.3526 80.0952 32.6378 80.085C32.6684 80.3933 32.699 80.7531 32.2915 80.7531C31.9655 80.7531 31.772 80.4756 31.772 80.1158Z" fill="#F49FD4"/>
<path d="M70.8375 82.4695C70.7356 82.5415 70.6236 82.6957 70.5522 82.6854C70.318 82.634 70.1957 82.4387 70.2874 82.2126C70.318 82.1303 70.5726 82.0686 70.6643 82.1098C70.756 82.1509 70.7865 82.3462 70.8477 82.4695H70.8375Z" fill="#EE54AD"/>
<path d="M57.6665 82.9426C57.6971 82.3258 57.9619 81.9352 58.624 81.9455C58.5324 82.5006 58.1758 82.7884 57.6665 82.9426Z" fill="#EF50B1"/>
<path d="M70.2874 77.1758C70.2263 77.2889 70.1856 77.4636 70.0939 77.5047C70.0124 77.5458 69.8698 77.4328 69.7476 77.3916C69.8189 77.2786 69.8698 77.1347 69.9615 77.0524C70.1041 76.9291 70.2263 76.9908 70.2874 77.1655V77.1758Z" fill="#FB1088"/>
<path d="M68.5558 25.8008C68.515 25.9962 68.4845 26.1915 68.4437 26.3868C68.3113 26.3251 68.1585 26.284 68.0566 26.1915C67.8427 26.0064 67.4964 25.7392 67.7103 25.5028C68.077 25.1121 68.3317 25.5336 68.5558 25.8008Z" fill="#F4A9E6"/>
<path d="M81.89 46.5439C81.9511 46.5439 82.0326 46.5439 82.053 46.5645C82.0938 46.6159 82.1243 46.7187 82.0937 46.7701C81.9919 46.9859 81.8798 46.9757 81.8187 46.7393C81.8085 46.6879 81.8595 46.6056 81.8798 46.5439H81.89Z" fill="#F7379E"/>
<path d="M14.404 46.0919C14.3429 46.1124 14.2817 46.1741 14.2308 46.1535C14.0373 46.1021 14.0169 45.9994 14.1799 45.8966C14.2206 45.8657 14.3225 45.8966 14.3632 45.9274C14.3938 45.948 14.3938 46.0302 14.404 46.0816V46.0919Z" fill="#EE2C82"/>
<path d="M15.9724 41.3223C15.9928 41.3839 16.0437 41.4456 16.0335 41.497C15.9826 41.682 15.8909 41.7026 15.7992 41.5484C15.7788 41.5073 15.7992 41.4148 15.8298 41.3737C15.8501 41.3428 15.9215 41.3428 15.9724 41.3325V41.3223Z" fill="#F8279E"/>
<path d="M75.5944 52.9784C75.5231 53.0812 75.4416 53.2046 75.3601 53.3279C75.2685 53.2046 75.1462 53.1018 75.1055 52.9682C75.0342 52.7009 75.1666 52.5364 75.4416 52.5776C75.6454 52.6084 75.6861 52.7626 75.5944 52.9784Z" fill="#FABFE6"/>
<path d="M6.07102 26.5923C6.09139 26.6437 6.14233 26.7156 6.13214 26.7568C6.08121 26.9315 5.98953 26.9521 5.89785 26.8081C5.87748 26.767 5.89785 26.6745 5.92841 26.6334C5.94878 26.6026 6.02009 26.6128 6.07102 26.5923Z" fill="#F31B6F"/>
<path d="M80.2803 8.62416C80.046 8.62416 79.6895 8.66528 79.6895 8.42886C79.6895 8.18216 80.046 8.22327 80.2701 8.22327C80.2803 8.3569 80.2905 8.49053 80.2701 8.62416H80.2803Z" fill="#EF2B96"/>
<path d="M48.5188 29.861C48.3966 29.9124 48.2845 29.9638 48.1623 29.9946C48.1317 29.9946 48.04 29.8918 48.04 29.8404C48.04 29.789 48.1419 29.6862 48.1725 29.6965C48.2947 29.7376 48.4068 29.8096 48.5188 29.8713V29.861Z" fill="#F843B0"/>
<path d="M84.5591 39.6464C84.6202 39.2764 84.4878 38.8138 85.0073 38.6699C85.048 39.0914 84.9767 39.4511 84.5591 39.6464Z" fill="#EF83C1"/>
<path d="M73.2312 12.9105C72.6098 12.6021 72.6811 12.2937 73.2312 11.9854C73.2312 12.2937 73.2312 12.6021 73.2312 12.9105Z" fill="#F445AE"/>
<path d="M10.0849 37.6113C9.91178 37.7963 9.73861 37.9711 9.56543 38.1561C9.45338 38.0636 9.43301 37.9608 9.48394 37.8271C9.65711 37.6318 9.83028 37.4263 10.0035 37.231C10.1053 37.344 10.1359 37.4777 10.0849 37.6216V37.6113Z" fill="#FBEEF5"/>
<path d="M41.7244 19.0677C41.4697 19.0985 41.2253 19.1396 40.9706 19.1705C40.7057 19.1396 40.5835 18.9752 40.5835 18.7079L40.7363 18.5537C41.1438 18.5537 41.5308 18.6257 41.7244 19.0574V19.0677Z" fill="#F1BDDA"/>
<path d="M61.3029 89.182C61.2418 89.1922 61.1603 89.2333 61.1399 89.2128C61.0992 89.1717 61.0483 89.0792 61.0584 89.0278C61.1094 88.8222 61.2214 88.8016 61.3335 88.9661C61.364 89.0072 61.3131 89.0997 61.3029 89.1717V89.182Z" fill="#F63792"/>
<path d="M24.6313 66.249C24.8555 66.3416 25.0999 66.6705 24.9879 66.7116C24.4378 66.9378 24.7536 66.4135 24.6517 66.2388H24.6415L24.6313 66.249Z" fill="#F31F7F"/>
<path d="M32.5158 69.3534C32.3936 69.3946 32.2815 69.4562 32.1491 69.4768C32.1185 69.4768 32.0676 69.374 32.0269 69.3123C32.1491 69.2712 32.2713 69.2095 32.3936 69.189C32.4241 69.189 32.4751 69.302 32.5158 69.3637V69.3534Z" fill="#E773AE"/>
<path d="M59.2451 69.9082C59.296 69.9082 59.3775 69.9082 59.3979 69.9288C59.4284 69.9802 59.459 70.0624 59.4386 70.1138C59.3469 70.3091 59.2451 70.2988 59.1839 70.0932C59.1738 70.0418 59.2247 69.9699 59.2451 69.9185V69.9082Z" fill="#F6228F"/>
<path d="M65.2451 90.5592C64.9701 90.5386 64.6645 90.6209 64.4607 90.3433C64.4403 90.3228 64.5218 90.1686 64.5728 90.1686C64.8987 90.1172 65.1127 90.292 65.2451 90.5798V90.5592Z" fill="#EF73D1"/>
<path d="M67.1297 77.6899C67.1093 77.4124 67.1806 77.2171 67.4964 77.1965C67.639 77.032 67.802 77.0218 67.965 77.1657C67.7918 77.5357 67.5779 77.8338 67.0991 77.6591L67.1297 77.7002V77.6899Z" fill="#EA93CC"/>
<path d="M41.1945 79.0674C41.6121 79.2318 41.6733 79.6327 41.7853 80.0028C41.5714 80.0233 41.3575 80.0542 41.1436 80.0747C41.1639 79.7355 41.1741 79.4066 41.1945 79.0674Z" fill="#F90676"/>
<path d="M44.5253 84.7617C44.943 84.9467 45.0245 85.3065 45.0245 85.7074C44.5253 85.5635 44.4642 85.1934 44.5253 84.7617Z" fill="#F9117B"/>
<path d="M70.8784 60.5443C70.8784 60.2257 70.8784 59.907 70.8784 59.5884C71.3776 59.907 71.3572 60.2257 70.8784 60.5341V60.5443Z" fill="#F90A79"/>
<path d="M73.2314 67.2051C73.2314 67.3695 73.2314 67.5237 73.2212 67.6882C73.0379 67.6162 72.9666 67.4929 73.0481 67.349C73.0786 67.2873 73.1703 67.2565 73.2314 67.2154V67.2051Z" fill="#FB077A"/>
<path d="M35.0214 74.3491C34.9501 74.5855 34.8075 74.75 34.563 74.8117C34.6139 74.5547 34.7565 74.3902 35.0214 74.3491Z" fill="#EF3E9C"/>
<path d="M72.3042 69.6001C72.4672 69.6001 72.6302 69.6001 72.7932 69.6001C72.7422 69.8879 72.5996 70.073 72.2839 70.0627H72.294C72.2533 69.9085 72.2533 69.7543 72.3042 69.5898V69.6001Z" fill="#E570B9"/>
<path d="M70.9697 71.6252C71.1327 71.5944 71.2957 71.5635 71.4689 71.543C71.4485 71.6869 71.3874 71.8102 71.2957 71.913C71.1225 71.8822 71.0207 71.7897 70.9697 71.6252Z" fill="#FAD7EB"/>
<path d="M34.1555 71.4914C33.8907 71.4194 33.6971 71.2858 33.6055 71.0186C33.9314 71.0186 34.0639 71.2344 34.1555 71.4914Z" fill="#ED75C0"/>
<path d="M15.3105 50.4296C15.3105 50.3165 15.3207 50.1931 15.3411 50.0801C15.555 50.2034 15.6569 50.3884 15.6467 50.6351C15.5245 50.5838 15.4124 50.5118 15.3207 50.4296H15.3105Z" fill="#F70A78"/>
<path d="M20.5159 59.5884L20.5974 59.609C20.5974 59.7118 20.6279 59.8248 20.6177 59.9276C20.6177 59.9585 20.5159 59.979 20.4649 60.0099C20.3732 59.8557 20.3834 59.7118 20.5159 59.5781V59.5884Z" fill="#EDACD1"/>
<path d="M17.5718 49.1138L17.6736 48.9185L17.7653 49.011L17.5718 49.1138Z" fill="#F70A78"/>
<path d="M14.1391 49.6172C14.3123 49.6686 14.4854 49.72 14.6586 49.7714C14.5873 49.8845 14.4854 49.9667 14.353 50.0181C14.2308 49.9153 14.1493 49.7714 14.1289 49.6069L14.1391 49.6172Z" fill="#F3DBEE"/>
<path d="M17.5719 49.1138L17.4598 49.3194L17.3682 49.2268L17.5719 49.1138Z" fill="#F70A78"/>
<path d="M14.7705 49.5147C14.7705 49.3811 14.7807 49.2474 14.8011 49.1035C14.9335 49.1035 15.0761 49.1035 15.2085 49.1138C15.1882 49.3297 15.1576 49.5455 15.1372 49.7511C14.9844 49.71 14.8724 49.6278 14.7705 49.5044V49.5147Z" fill="#F70A78"/>
<path d="M70.8781 60.5439C70.8373 60.6056 70.7966 60.7392 70.7762 60.729C70.6132 60.6879 70.6539 60.6159 70.8882 60.5439H70.8781Z" fill="#F90A79"/>
<path d="M17.5615 54.6745C17.5309 54.7568 17.5207 54.839 17.5309 54.9315C17.2049 54.9007 17.0521 54.6745 16.9604 54.3867C17.1642 54.4792 17.3679 54.582 17.5716 54.6745H17.5615Z" fill="#F7E8EF"/>
<path d="M16.1353 51.5398C15.8909 51.4473 15.7584 51.2931 15.7686 51.0259C15.8909 51.2006 16.0131 51.3754 16.1353 51.5398Z" fill="#F70A78"/>
<path d="M15.5347 52.002C15.6977 52.0328 15.8606 52.0636 16.0236 52.0945C15.9931 52.2589 15.9014 52.372 15.7282 52.4131C15.6365 52.2898 15.5754 52.1561 15.5449 52.002H15.5347Z" fill="#F7D6EC"/>
<path d="M11.4089 41.9801C11.2663 41.9801 11.1135 41.9801 10.9709 41.9801C10.9607 41.826 10.9404 41.6718 10.9302 41.5176C11.0626 41.5176 11.195 41.5176 11.3275 41.5176C11.358 41.6718 11.3784 41.8362 11.4089 41.9904V41.9801Z" fill="#EFC3DB"/>
<path d="M12.8965 45.7524C12.7844 45.7524 12.6724 45.7525 12.5603 45.7833C12.4482 45.516 12.5807 45.3927 12.8252 45.3516C12.927 45.4749 12.9474 45.6085 12.8965 45.7627V45.7524Z" fill="#FDE6F3"/>
<path d="M22.604 63.4327C22.7568 63.4327 22.9096 63.4327 23.0624 63.3916C23.1643 63.6794 23.0318 63.813 22.7568 63.8644C22.7161 63.7205 22.6651 63.5766 22.604 63.4327Z" fill="#EA8BC4"/>
<path d="M70.43 15.83C70.2772 15.9842 70.1244 16.1384 69.9716 16.3028L69.941 16.2823C69.8086 15.83 69.9614 15.6655 70.4096 15.8094L70.43 15.83Z" fill="#FD308A"/>
<path d="M64.7256 12.9313C64.7256 13.0855 64.7256 13.2397 64.695 13.3939C64.532 13.3836 64.369 13.363 64.2061 13.3527C64.2061 13.1266 64.2264 12.9005 64.2264 12.6743C64.42 12.7154 64.583 12.7977 64.7154 12.9416L64.7256 12.9313Z" fill="#F33EAF"/>
<path d="M6.37695 14.5758L6.51957 14.5347L6.49919 14.658L6.37695 14.5758Z" fill="#F342B2"/>
<path d="M18.2847 14.0415L18.3254 14.1751L18.2134 14.1546L18.2847 14.0415Z" fill="#EE5198"/>
<path d="M40.7974 78.5122C41.0826 78.5842 41.215 78.7795 41.215 79.0673C40.94 78.985 40.7974 78.8 40.7974 78.5122Z" fill="#F90676"/>
<path d="M67.9648 77.1554C67.812 77.1656 67.649 77.1759 67.4962 77.1862C67.4656 77.0217 67.4962 76.8675 67.5675 76.7236C67.761 76.7339 67.9648 76.7442 68.1583 76.7648C68.1481 76.9189 68.0768 77.0526 67.9648 77.1554Z" fill="#FCE5F2"/>
<path d="M68.5967 75.336C68.7801 75.336 68.9533 75.336 69.1366 75.336C69.0551 75.4696 68.9736 75.6135 68.9023 75.7471H68.6782L68.4541 75.7574C68.4541 75.6032 68.505 75.4593 68.5967 75.3257V75.336Z" fill="#E6B3D2"/>
<path d="M43.5068 86.2521C43.568 86.0054 43.7208 85.8512 43.9754 85.7998C43.9754 85.9437 43.9754 86.0773 43.9754 86.2212C43.8328 86.3754 43.68 86.3754 43.517 86.2521H43.5068Z" fill="#F43699"/>
<path d="M43.5171 86.252C43.6699 86.252 43.8227 86.2315 43.9755 86.2212C43.8431 86.5707 43.6903 86.5912 43.5171 86.252Z" fill="#F9117B"/>
<path d="M47.3165 88.1847C47.1433 88.4828 46.9701 88.4828 46.8071 88.1847L46.8479 88.1435C47.0007 88.0408 47.1433 88.0408 47.2859 88.1641L47.3165 88.1949V88.1847Z" fill="#F9117B"/>
<path d="M44.4443 87.6504C44.6378 87.3523 44.8008 87.3626 44.9129 87.7018C44.7702 87.8251 44.6276 87.8148 44.485 87.7018L44.4341 87.6504H44.4443Z" fill="#F9117B"/>
<path d="M40.2065 18.6566C40.2065 18.4716 40.2065 18.2968 40.2167 18.1118C40.4714 18.1632 40.6853 18.2763 40.7362 18.5641C40.7362 18.6566 40.6751 18.708 40.5834 18.7183L40.3899 18.7286L40.2065 18.6566Z" fill="#DA92B5"/>
<path d="M44.4951 87.7017C44.6377 87.6914 44.7803 87.6914 44.923 87.7017C44.9331 87.8456 44.9433 87.9895 44.9331 88.1334C44.6887 88.082 44.5461 87.9381 44.4951 87.6914V87.7017Z" fill="#EF429D"/>
<path d="M56.7495 83.8882C56.9227 83.8882 57.0959 83.8882 57.269 83.8882C57.1875 84.0732 57.1366 84.3096 56.8718 84.248C56.8106 84.2377 56.7903 84.0218 56.7495 83.8985V83.8882Z" fill="#E693BA"/>
<path d="M51.7885 82.5723L51.8394 82.7265L51.6968 82.7162L51.7885 82.5723Z" fill="#EB5BAF"/>
<path d="M63.3504 83.4047L63.4319 83.0347C63.5032 83.0861 63.5847 83.1477 63.656 83.1991C63.5439 83.2608 63.4319 83.3225 63.3198 83.3739L63.3606 83.4047H63.3504Z" fill="#E792BF"/>
<path d="M78.4673 5.39677C79.2109 5.19119 79.9545 4.97533 80.7083 4.76974C81.3603 4.53332 81.7474 3.62876 82.6336 3.97825C83.6115 4.78002 84.7422 4.38941 85.8016 4.32774C88.1344 4.20439 90.0291 5.07812 91.6589 6.70222C91.7099 7.2059 91.6284 7.55539 90.9968 7.30869C87.3704 6.36301 83.6828 5.84905 79.9342 5.91073C79.3943 5.86961 78.6303 6.50692 78.4673 5.39677Z" fill="#FBF1F6"/>
<path d="M65.6831 15.3157C66.7425 14.3495 66.0396 13.116 66.1822 12.0058C66.4777 11.903 66.824 11.8825 67.0481 11.6872C68.7391 10.2686 68.7289 10.2584 70.9801 11.2041C71.2144 12.4273 70.0531 13.5991 70.8681 14.8326C70.5727 15.0896 70.2671 15.1204 69.9411 14.884C69.7272 14.5756 69.5336 14.2364 69.279 13.9691C68.6372 13.2907 67.9853 13.4038 67.6899 14.2364C67.3231 15.3157 66.8036 15.8091 65.6831 15.3054V15.3157Z" fill="#FE006F"/>
<path d="M69.4319 9.09718C68.9328 9.80644 68.4336 9.71393 68.0364 9.03551C67.5372 8.19262 67.0075 7.33945 67.1094 6.27042C67.7919 6.19847 68.4846 6.16763 69.1569 6.05456C69.7884 5.94149 70.2061 6.11623 70.4098 6.75354C71.1942 6.75354 71.9888 6.75354 72.7731 6.75354C72.9667 6.90773 73.2621 6.9694 73.2723 7.28806C73.0176 7.63755 72.6611 7.69922 72.2638 7.67866H72.274C72.0397 8.32625 71.1636 8.05899 70.8886 8.65518C70.4098 8.80937 69.9209 8.96355 69.4421 9.10746L69.4319 9.09718Z" fill="#F70D7F"/>
<path d="M88.7965 2.92958C88.6132 3.05293 88.3178 3.32019 88.277 3.27907C87.676 2.77539 86.148 3.63884 86.3212 2.32311C86.5148 0.781242 87.6658 2.22032 88.3585 2.00446C88.6947 2.22032 88.5419 2.6726 88.8067 2.92958H88.7965Z" fill="#FA0A8B"/>
<path d="M97.129 8.91201C96.8743 9.31289 96.8743 10.0427 96.1103 9.88853C95.764 9.81657 95.2139 9.66238 95.3056 9.25122C95.438 8.61391 95.9575 8.2233 96.6604 8.25414C97.0373 8.26442 97.1595 8.54196 97.129 8.91201Z" fill="#FC067F"/>
<path d="M82.6338 3.97817C82.0837 4.46129 81.554 5.01636 80.7085 4.76966C80.8205 4.49212 80.9122 4.19403 81.0548 3.92677C81.6558 2.79607 81.7475 2.80635 82.6439 3.97817H82.6338Z" fill="#E35AB1"/>
<path d="M90.1002 8.98387C89.978 9.24085 89.9576 9.34364 89.9169 9.3642C89.377 9.59034 88.8677 10.0529 88.2565 9.60062C88.175 9.53895 88.1241 9.27169 88.1852 9.19973C88.6843 8.50075 89.3159 8.55215 90.1104 8.98387H90.1002Z" fill="#F81794"/>
<path d="M78.467 5.39663C78.8541 5.85919 79.4551 5.72556 79.9339 5.91058C78.8541 6.54789 77.6929 6.27035 76.552 6.21896C76.389 6.12645 76.3279 6.04421 76.389 5.9517C76.4399 5.85919 76.501 5.81807 76.552 5.81807C77.1632 5.55081 77.754 5.2116 78.467 5.39663Z" fill="#E09DC2"/>
<path d="M73.2618 7.288C73.0989 7.11326 72.9359 6.92823 72.7627 6.75349C72.8238 6.71237 72.9359 6.67126 72.9461 6.61986C73.109 5.35553 73.761 5.26301 74.7083 5.8592C74.8917 6.34232 74.474 6.47595 74.2296 6.72265C73.9036 6.91796 73.5878 7.10298 73.2618 7.29828V7.288Z" fill="#F1249C"/>
<path d="M66.1108 11.9442C65.8053 12.1087 65.5098 12.2731 65.2042 12.4376C65.0922 12.3245 65.0514 12.2115 65.082 12.0881C65.1227 11.975 65.1533 11.9134 65.1941 11.9134C65.1126 11.5433 65.0718 11.163 64.6032 11.0294C64.3078 10.9471 64.0939 10.7004 64.043 10.3407C64.6745 9.89865 65.1329 10.7004 65.7136 10.5874C65.9886 10.8546 66.172 11.163 66.172 11.5639C66.1516 11.6872 66.121 11.8106 66.1108 11.9442Z" fill="#F83AB5"/>
<path d="M91.0068 7.29836C91.2309 7.09278 91.4449 6.89748 91.669 6.69189C92.4737 6.90776 92.7997 7.68897 93.4109 8.18237C92.4635 8.21321 91.7606 7.69925 91.0068 7.29836Z" fill="#FAE1F2"/>
<path d="M63.4215 13.0443C62.7084 13.7536 61.8222 13.4144 60.9971 13.4658C61.0582 12.335 61.0378 12.3967 61.8527 12.7771C62.3213 12.9929 62.8918 12.9621 63.4113 13.0546L63.4215 13.0443Z" fill="#F33EAF"/>
<path d="M59.2657 13.2089C59.5 13.3528 59.5611 13.6304 59.4287 13.9285C59.3268 14.1443 59.1027 14.2266 58.8888 14.1032C58.6545 13.9696 58.6443 13.7332 58.7156 13.507C58.7869 13.2912 58.9092 13.0959 59.2657 13.2089Z" fill="#FB1194"/>
<path d="M74.2295 6.71216C74.3925 6.42434 74.5453 6.13652 74.7083 5.84871C75.3296 5.83843 75.9408 5.82815 76.5622 5.81787C76.5622 5.9515 76.5622 6.08513 76.5622 6.21876C75.788 6.38322 75.0037 6.54769 74.2295 6.71216Z" fill="#E874C0"/>
<path d="M69.9515 14.8947C70.2571 14.8741 70.5729 14.8638 70.8785 14.8433C70.7257 15.1619 70.5729 15.4806 70.4099 15.7992C70.2571 15.9534 70.0941 16.1179 69.9413 16.2721L69.7274 16.2926H69.5135C69.2894 16.1179 68.9736 16.0356 68.9634 15.6656C69.2995 15.4086 69.6255 15.1414 69.9617 14.8844L69.9515 14.8947Z" fill="#F02F98"/>
<path d="M87.3906 11.0396H89.0102C88.399 11.5639 87.8082 11.8106 87.4007 11.0088L87.3804 11.0396H87.3906Z" fill="#E67DB8"/>
<path d="M66.1824 11.5744C65.7444 11.3791 65.6935 11.0091 65.724 10.5979C66.1111 10.5157 66.6408 10.4129 66.7936 10.7315C66.9668 11.1016 66.5186 11.3791 66.1722 11.5744H66.1824Z" fill="#ED8DC8"/>
<path d="M70.8783 8.65527C71.3163 8.73751 71.8256 8.75807 71.5913 9.43649C71.5506 9.54956 71.3774 9.71402 71.2857 9.70375C70.5931 9.59067 70.9903 9.01504 70.8783 8.65527Z" fill="#F70D7F"/>
<path d="M85.4859 10.207C86.0869 10.5565 86.9222 10.3715 87.3908 11.0396L87.4111 11.0191C86.7388 11.0088 86.0156 11.2555 85.4961 10.5771L85.3433 10.4023L85.4859 10.2173V10.207Z" fill="#E364A5"/>
<path d="M90.4671 3.7828C90.8033 3.68001 91.007 3.71084 90.9764 4.00894C90.9662 4.11173 90.7931 4.2762 90.6912 4.2762C90.4875 4.2762 90.2837 4.20424 90.0698 4.15285C90.2226 4.00894 90.3856 3.85475 90.4671 3.77252V3.7828Z" fill="#FC1E9E"/>
<path d="M75.4013 4.3894C75.2994 4.47163 75.2077 4.6361 75.1059 4.6361C74.841 4.6361 74.7392 4.43052 74.8308 4.1941C74.8716 4.10158 75.0855 4.02963 75.1874 4.06047C75.279 4.0913 75.33 4.27633 75.3911 4.3894H75.4013Z" fill="#F42794"/>
<path d="M91.6794 13.6094C91.7609 13.7122 91.9137 13.8047 91.9137 13.9075C91.9137 14.1747 91.7202 14.2775 91.496 14.1747C91.4044 14.1336 91.3331 13.9177 91.3636 13.815C91.384 13.7224 91.5674 13.6813 91.6896 13.6197L91.6794 13.6094Z" fill="#F2238C"/>
<path d="M77.0105 9.12808C76.8577 9.39533 76.654 9.58036 76.3382 9.39533C76.2669 9.35422 76.2159 9.09724 76.2567 9.05612C76.5215 8.78887 76.7558 9.09724 77.0105 9.13836V9.12808Z" fill="#FA0A7F"/>
<path d="M82.8884 9.83718C82.756 9.86802 82.593 9.97081 82.5013 9.91941C82.4096 9.86802 82.3179 9.67271 82.3383 9.55964C82.3689 9.37462 82.5421 9.3335 82.6745 9.46713C82.7662 9.55964 82.8171 9.70355 82.8884 9.8269V9.83718Z" fill="#F82796"/>
<path d="M88.7965 2.92963C88.389 2.7446 88.3381 2.39511 88.3483 2.0045C89.204 1.96339 89.041 2.42595 88.7965 2.92963Z" fill="#F0309A"/>
<path d="M60.9261 13.8462C61.0687 14.2676 60.6816 14.4835 60.5594 14.8022C60.1587 14.3841 60.2809 14.0655 60.9261 13.8462Z" fill="#F33EAF"/>
<path d="M98.6776 13.661C98.6165 13.7844 98.5452 13.9077 98.4841 14.0311C98.4128 13.9077 98.2905 13.7947 98.2905 13.6713C98.2905 13.548 98.4026 13.4246 98.4739 13.3013C98.5452 13.4246 98.6165 13.5377 98.6878 13.661H98.6776Z" fill="#FA158D"/>
<path d="M75.3198 9.54925C75.1976 9.48757 75.0754 9.41562 74.9531 9.35395C75.0041 9.30255 75.0448 9.22032 75.1059 9.18948C75.2791 9.10725 75.4115 9.1792 75.4523 9.36422C75.4523 9.41562 75.3708 9.4773 75.3198 9.53897V9.54925Z" fill="#E679BD"/>
<path d="M85.7098 8.4083C85.669 8.34663 85.5977 8.29523 85.6079 8.23356C85.6181 8.02797 85.72 7.97658 85.8524 8.09993C85.8931 8.14104 85.9033 8.24384 85.883 8.30551C85.8626 8.35691 85.7811 8.37746 85.72 8.4083H85.7098Z" fill="#FE34B4"/>
<path d="M15.1167 4.93379C14.7703 4.81044 14.6481 4.46095 14.9027 4.29649C15.2898 4.07035 15.2695 4.49179 15.3 4.73849C15.2389 4.80016 15.1778 4.86184 15.1167 4.92351V4.93379Z" fill="#F495DA"/>
<path d="M31.9044 5.66357C31.9655 5.68413 32.0674 5.70469 32.0674 5.72525C32.0674 5.78692 32.0266 5.85888 32.0062 5.93083C31.9451 5.91027 31.8433 5.88972 31.8433 5.86916C31.8433 5.80748 31.884 5.73553 31.9044 5.66357Z" fill="#FE006F"/>
<path d="M83.6725 9.04568C83.6114 9.02512 83.5095 9.01484 83.479 8.97372C83.4077 8.82981 83.4892 8.7373 83.6929 8.76814C83.7438 8.76814 83.7948 8.86065 83.8457 8.92233C83.7846 8.96344 83.7336 9.01484 83.6725 9.05595V9.04568Z" fill="#F832A0"/>
<path d="M85.4856 10.2071C85.4856 10.3305 85.4856 10.4435 85.4958 10.5669C85.3736 10.5052 85.1597 10.4333 85.1597 10.3716C85.1597 10.1866 85.3023 10.1249 85.4856 10.2071Z" fill="#EE69B9"/>
<path d="M15.3001 4.74902C15.5038 4.84154 15.6973 5.01628 15.5038 5.19103C15.2899 5.38633 15.188 5.11907 15.1167 4.94433C15.1778 4.88265 15.2389 4.82098 15.3001 4.7593V4.74902Z" fill="#F49FD1"/>
<path d="M55.6801 16.5184C55.6801 16.5184 55.5884 16.6007 55.5477 16.6418C55.5069 16.5904 55.4356 16.539 55.4458 16.4979C55.4458 16.4567 55.5273 16.4156 55.5782 16.3745C55.619 16.4259 55.6597 16.467 55.6903 16.5184H55.6801Z" fill="#F868C4"/>
<path d="M95.3974 12.9209C95.3159 12.849 95.2446 12.777 95.1631 12.7051C95.214 12.7051 95.2751 12.7051 95.3057 12.7359C95.3464 12.7873 95.3668 12.8593 95.3872 12.9209H95.3974Z" fill="#F746AA"/>
<path d="M64.7258 12.9314C64.5628 12.8389 64.3998 12.7566 64.2368 12.6641H64.2572C64.4202 12.5922 64.5933 12.5099 64.7563 12.438C64.7563 12.6025 64.736 12.7669 64.7258 12.9314Z" fill="#F5B7D8"/>
<path d="M65.2144 11.9238C65.2144 12.0986 65.2144 12.2733 65.2144 12.4481C65.0514 12.4481 64.8884 12.4686 64.7255 12.4789C64.7153 12.1397 64.919 11.9958 65.2144 11.9238Z" fill="#F4A8D8"/>
<path d="M68.9532 15.686C69.269 15.7683 69.5033 15.9225 69.5033 16.3028C68.7087 16.7756 67.9142 17.2485 67.1094 17.7316C67.1094 17.7316 66.9261 17.6802 66.9159 17.6905C66.8038 17.6185 66.7122 17.526 66.6408 17.4129L66.6001 17.2176C67.0381 16.1692 68.1383 16.1692 68.943 15.6963L68.9532 15.686Z" fill="#F0C5DA"/>
<path d="M65.7139 19.1602C65.1842 19.9105 64.6341 20.6301 63.7682 21.0104C63.6358 20.8665 63.4932 20.7226 63.3506 20.589C63.7886 19.9003 64.573 19.6536 65.1434 19.1293C65.3472 18.9135 65.5407 18.934 65.7241 19.1704L65.7139 19.1602Z" fill="#EE2996"/>
<path d="M66.0498 18.1635C66.1109 17.7729 66.2332 17.4131 66.6101 17.2075C66.6101 17.3 66.6508 17.3823 66.7221 17.4439L66.8851 17.6084C66.9462 17.6804 67.0175 17.7112 67.1092 17.7215C66.9666 17.8757 66.824 18.0401 66.6712 18.1943C66.4471 18.3999 66.2433 18.3896 66.0498 18.1635Z" fill="#F9E7F4"/>
<path d="M66.0498 18.1631C66.2535 18.1734 66.4674 18.1836 66.6711 18.1939C66.6202 18.4612 66.4471 18.6154 66.1924 18.6873C65.9785 18.8518 65.7849 18.8312 65.6016 18.6462C65.6627 18.4098 65.7645 18.2042 66.0498 18.1631Z" fill="#E393BC"/>
<path d="M65.6117 18.6465C65.8052 18.6568 66.0089 18.6773 66.2025 18.6876C66.0395 18.8418 65.8765 19.0063 65.7237 19.1604C65.5302 19.1502 65.3366 19.1399 65.1431 19.1193C65.2042 18.8623 65.3468 18.6876 65.6117 18.6465Z" fill="#E556A6"/>
<path d="M63.3506 20.5786C63.6053 20.5992 63.7377 20.7534 63.7682 21.0001C63.4728 21.0103 63.3608 20.8459 63.3506 20.5786Z" fill="#E37CBC"/>
<path d="M47.3066 38.1563C47.2353 38.2282 47.164 38.3105 47.0825 38.3824C47.0927 38.3413 47.0825 38.2796 47.1233 38.2488C47.1742 38.2077 47.2353 38.1768 47.2964 38.146L47.3066 38.1563Z" fill="#F756C3"/>
<path d="M47.2862 88.1436C47.1436 88.1436 46.9908 88.1436 46.8481 88.1231C47.0111 87.753 47.1537 87.8044 47.2862 88.1436Z" fill="#F23E9A"/>
<path d="M72.7832 64.8511C73.0073 64.9333 73.1601 65.0978 73.1397 65.3445C73.1397 65.3959 72.9768 65.437 72.8851 65.4884C72.8545 65.2725 72.824 65.0567 72.7934 64.8408V64.8511H72.7832Z" fill="#FA55B9"/>
<path d="M49.6597 24.783C49.4763 24.8446 49.293 24.7727 49.3031 24.5877C49.3133 24.3821 49.4967 24.3512 49.6699 24.4746C49.6495 24.5774 49.6495 24.6802 49.6699 24.783H49.6597Z" fill="#F7BEF2"/>
<path d="M59.6936 15.8506C59.8362 15.902 59.9381 15.9945 59.9788 16.1487C59.7343 16.2001 59.6121 16.1281 59.6936 15.8506Z" fill="#FBE2EF"/>
<path d="M58.4916 17.6082C58.4101 17.6288 58.3286 17.6391 58.2573 17.6493C58.3083 17.4643 58.3388 17.1971 58.4916 17.6082Z" fill="#F6C6E9"/>
<path d="M55.7411 86.2212C55.68 86.1904 55.5781 86.1493 55.5781 86.1184C55.5883 85.9745 55.6596 86.0054 55.7513 86.2007V86.2212H55.7411Z" fill="#FFF2F9"/>
<path d="M19.7826 57.8101L19.7316 58.0156L19.5381 58.067C19.5381 57.9026 19.6196 57.8203 19.7826 57.8101Z" fill="#FEE8FA"/>
<path d="M72.2636 7.66819C72.1108 7.67847 71.958 7.72986 71.8154 7.7093C71.6117 7.67847 71.4182 7.59623 71.2246 7.53456C71.3978 7.16451 71.6932 7.22618 71.9682 7.35981C72.0905 7.42149 72.1618 7.57568 72.2535 7.68875H72.2636V7.66819Z" fill="#ED65B8"/>
<path d="M69.4316 9.09681C69.1668 9.09681 68.8612 9.20989 68.7084 8.87067C68.6982 8.83984 68.7797 8.71649 68.8306 8.70621C69.177 8.60342 69.3502 8.76788 69.4215 9.09681H69.4316Z" fill="#EF85C3"/>
<path d="M70.3993 6.75342C70.3178 6.82537 70.2363 6.89733 70.1548 6.96928C70.165 6.91788 70.165 6.84593 70.2057 6.82537C70.2566 6.78426 70.3381 6.77398 70.3993 6.75342Z" fill="#F558B8"/>
<path d="M66.8852 17.6083C66.8037 17.5775 66.7527 17.5158 66.7222 17.4438H66.8953V17.6186L66.8852 17.6083Z" fill="#FFF8F9"/>
</g>
<defs>
<clipPath id="clip0_37_51439">
<rect width="101" height="109" fill="white"/>
</clipPath>
</defs>
</svg>
